<svg width="30" height="30" viewBox="0 0 30 30" fill="currentColor" xmlns="http://www.w3.org/2000/svg">
<path d="M1.4375 14.7812C1.4375 7.19609 7.23984 1.4375 14.825 1.4375C22.4102 1.4375 28.5625 7.19609 28.5625 14.7812C28.5625 20.8461 24.8547 26.0359 19.3859 27.8516C18.6914 27.9773 18.4398 27.5453 18.4398 27.1898C18.4398 26.7414 18.4563 24.4609 18.4563 22.618C18.4563 21.3328 18.0297 20.5125 17.5266 20.0805C20.5836 19.7359 23.8047 19.3148 23.8047 14.0375C23.8047 12.5391 23.2687 11.7844 22.3937 10.8164C22.5359 10.4609 23.0008 9.00078 22.2516 7.10313C21.1086 6.74219 18.4781 8.57969 18.4781 8.57969C17.3844 8.27344 16.2086 8.11484 15.0437 8.11484C13.8789 8.11484 12.7031 8.27344 11.6094 8.57969C11.6094 8.57969 8.97891 6.74766 7.83594 7.10313C7.08672 8.99531 7.55156 10.4609 7.69375 10.8164C6.81875 11.7789 6.40312 12.5336 6.40312 14.0375C6.40312 19.2984 9.4875 19.7414 12.5445 20.0805C12.1508 20.4414 11.7953 21.0484 11.6695 21.9234C10.8875 22.2844 8.88047 22.8914 7.68281 20.7805C6.93359 19.4789 5.57188 19.3695 5.57188 19.3695C4.23203 19.3531 5.48438 20.2117 5.48438 20.2117C6.38125 20.6219 7.00469 22.2133 7.00469 22.2133C7.80859 24.6633 11.6367 23.843 11.6367 23.843C11.6367 24.9914 11.6531 26.8617 11.6531 27.2008C11.6531 27.5562 11.407 27.9883 10.707 27.8625C5.25469 26.0359 1.4375 20.8461 1.4375 14.7812Z" fill="currentColor"/>
</svg>
