<svg width="30" height="30" viewBox="0 0 30 30" fill="currentColor" xmlns="http://www.w3.org/2000/svg">
<path fill-rule="evenodd" clip-rule="evenodd" d="M5 4C5 2.89543 5.89543 2 7 2H18.1716C18.702 2 19.2107 2.21071 19.5858 2.58579L24.4142 7.41421C24.7893 7.78929 25 8.29799 25 8.82843V26C25 27.1046 24.1046 28 23 28H7C5.89543 28 5 27.1046 5 26V4ZM13.9278 11.3556C14.3001 11.1694 14.8272 11 15.5 11C17.2259 11 18.4011 11.7415 19.1115 12.7282C19.7852 13.6639 20 14.7566 20 15.5C20 16.2434 19.7852 17.3361 19.1115 18.2718C18.4011 19.2585 17.2259 20 15.5 20C14.4804 20 13.6529 19.7412 13 19.3259V23C13 23.5523 12.5523 24 12 24C11.4477 24 11 23.5523 11 23V15.5C11 14.9477 11.4477 14.5 12 14.5C12.5523 14.5 13 14.9477 13 15.5C13 15.9233 13.1352 16.5805 13.5115 17.1032C13.8511 17.5749 14.4259 18 15.5 18C16.5741 18 17.1489 17.5749 17.4885 17.1032C17.8648 16.5805 18 15.9233 18 15.5C18 15.0767 17.8648 14.4195 17.4885 13.8968C17.1489 13.4251 16.5741 13 15.5 13C15.1728 13 14.9499 13.0806 14.8222 13.1444C14.7567 13.1772 14.7138 13.2068 14.6938 13.2219L14.6845 13.229C14.2925 13.5975 13.676 13.5902 13.2929 13.2071C12.9024 12.8166 12.9024 12.1834 13.2929 11.7929L14 12.5C13.2929 11.7929 13.2932 11.7925 13.2936 11.7922L13.2943 11.7915L13.2958 11.79L13.2988 11.787L13.3057 11.7803L13.3219 11.7648C13.3339 11.7536 13.3482 11.7405 13.3649 11.7259C13.3983 11.6968 13.4412 11.6613 13.4937 11.6219C13.5987 11.5432 13.7433 11.4478 13.9278 11.3556ZM18 4L23 9H19C18.4477 9 18 8.55228 18 8V4Z" fill="currentColor"/>
</svg>
